<svg xmlns="http://www.w3.org/2000/svg" viewBox="0 0 32 32" width="32" height="32"><rect width="32" height="32" rx="8" fill="#ff9500" fill-opacity=".16"/><g transform="translate(6 6) scale(0.8333)" fill="#C93400"><path d="M3.18 2.281c-.852.114-1.557.722-1.831 1.579l-.089.28V12c0 7.516.003 7.87.074 8.1A2.326 2.326 0 002.9 21.666c.23.071.613.074 9.1.074s8.87-.003 9.1-.074c.384-.117.701-.307.98-.586.279-.279.469-.596.586-.98.071-.23.074-.584.074-8.1s-.003-7.87-.074-8.1c-.23-.751-.781-1.31-1.546-1.566-.211-.071-.579-.074-8.96-.079-4.807-.003-8.848.009-8.98.026m17.652 1.555c.169.086.251.17.343.352.057.113.065.36.065 2.09V8.24H2.76V6.278c0-1.846.004-1.97.076-2.11a.696.696 0 01.344-.341c.108-.058.957-.064 8.812-.065 8.451-.002 8.695 0 8.84.074M3.94 4.577a.849.849 0 00-.227.168c-.305.326-.244.875.125 1.118.669.443 1.468-.356 1.025-1.025-.186-.282-.609-.401-.923-.261M21.24 12v2.24H2.76V9.76h18.48V12m-17.3-1.423a.849.849 0 00-.227.168c-.305.326-.244.875.125 1.118.669.443 1.468-.356 1.025-1.025-.186-.282-.609-.401-.923-.261m17.3 7.145c0 1.73-.008 1.977-.065 2.09a.682.682 0 01-.343.352c-.145.074-.39.076-8.832.076-7.927 0-8.695-.006-8.812-.065a.682.682 0 01-.352-.343c-.072-.14-.076-.264-.076-2.11V15.76h18.48v1.962m-17.3-1.145a.849.849 0 00-.227.168c-.305.326-.244.875.125 1.118.669.443 1.468-.356 1.025-1.025-.186-.282-.609-.401-.923-.261"/></g></svg>