<svg xmlns="http://www.w3.org/2000/svg" viewBox="0 0 24 24" width="24" height="24" fill="currentColor"><path d="M11.719 1.57Q11.625 1.594 11.484 1.723Q11.344 1.852 11.297 1.945Q11.25 2.039 11.25 2.883Q11.25 3.727 11.25 6.562Q11.25 11.062 11.227 12.094L11.18 13.125L10.289 12.234Q9.422 11.367 9.316 11.32Q9.211 11.273 8.953 11.273Q8.812 11.273 8.742 11.297Q8.672 11.32 8.555 11.391Q8.391 11.531 8.332 11.66Q8.273 11.789 8.273 12.023V12.281L8.625 12.68Q9.047 13.125 10.266 14.32Q11.484 15.516 11.625 15.609Q12 15.867 12.375 15.609Q12.516 15.516 13.746 14.309Q14.977 13.102 15.375 12.656L15.703 12.305V12.047Q15.727 11.789 15.668 11.66Q15.609 11.531 15.445 11.391Q15.328 11.32 15.258 11.297Q15.188 11.273 15.047 11.273Q14.789 11.273 14.684 11.32Q14.578 11.367 13.711 12.234L12.82 13.125L12.797 12.117Q12.75 11.203 12.75 6.633Q12.75 3.352 12.75 2.719Q12.75 2.086 12.68 1.969Q12.539 1.688 12.258 1.57Q11.977 1.453 11.719 1.57ZM7.031 7.57Q6.773 7.594 6.586 7.652Q6.398 7.711 6.07 7.898Q5.625 8.109 5.238 8.555Q4.852 9 4.688 9.469Q4.594 9.68 4.559 10.148Q4.523 10.617 4.523 15Q4.523 19.383 4.559 19.852Q4.594 20.32 4.688 20.531Q4.898 21.094 5.402 21.598Q5.906 22.102 6.469 22.312Q6.68 22.406 7.148 22.441Q7.617 22.477 12 22.477Q16.383 22.477 16.852 22.441Q17.32 22.406 17.531 22.312Q18.094 22.102 18.598 21.598Q19.102 21.094 19.336 20.531Q19.406 20.297 19.441 19.828Q19.477 19.359 19.477 15Q19.477 10.641 19.441 10.172Q19.406 9.703 19.336 9.469Q19.125 8.977 18.738 8.543Q18.352 8.109 17.906 7.875Q17.461 7.641 17.191 7.594Q16.922 7.547 16.043 7.535Q15.164 7.523 14.918 7.547Q14.672 7.57 14.531 7.699Q14.391 7.828 14.332 7.945Q14.273 8.062 14.273 8.25Q14.273 8.766 14.695 8.93Q14.812 8.977 15.844 9Q16.594 9.023 16.77 9.047Q16.945 9.07 17.109 9.141Q17.555 9.352 17.812 9.82L17.953 10.055V19.945L17.812 20.18Q17.555 20.648 17.062 20.883L16.828 21H7.172L6.938 20.883Q6.469 20.672 6.188 20.18L6.047 19.945V10.055L6.188 9.82Q6.445 9.352 6.891 9.141Q7.055 9.07 7.23 9.047Q7.406 9.023 8.156 9Q9.188 8.977 9.305 8.93Q9.727 8.742 9.727 8.25Q9.727 7.992 9.586 7.805Q9.445 7.617 9.211 7.57Q9.07 7.523 8.215 7.523Q7.359 7.523 7.031 7.57Z"/></svg>