<svg xmlns="http://www.w3.org/2000/svg" viewBox="0 0 24 24" width="24" height="24" fill="currentColor"><path d="M8.531 2.25Q8.086 2.719 8.004 2.906Q7.922 3.094 7.91 3.352Q7.898 3.609 7.969 3.82Q8.039 3.961 8.227 4.16Q8.414 4.359 8.531 4.406Q8.648 4.453 9 4.453Q9.352 4.453 9.469 4.406Q9.586 4.359 9.762 4.172Q9.938 3.984 10.008 3.844Q10.102 3.633 10.102 3.34Q10.102 3.047 10.008 2.895Q9.914 2.742 9.48 2.273Q9.047 1.805 9.012 1.805Q8.977 1.805 8.531 2.25ZM11.531 2.25Q11.086 2.719 11.004 2.906Q10.922 3.094 10.91 3.352Q10.898 3.609 10.969 3.82Q11.039 3.961 11.227 4.16Q11.414 4.359 11.531 4.406Q11.648 4.453 12 4.453Q12.352 4.453 12.469 4.406Q12.586 4.359 12.762 4.172Q12.938 3.984 13.008 3.844Q13.102 3.633 13.102 3.34Q13.102 3.047 13.008 2.895Q12.914 2.742 12.48 2.273Q12.047 1.805 12.012 1.805Q11.977 1.805 11.531 2.25ZM14.531 2.273Q14.109 2.695 14.004 2.883Q13.898 3.07 13.898 3.363Q13.898 3.656 13.969 3.82Q14.039 3.984 14.227 4.172Q14.555 4.5 15.023 4.488Q15.492 4.477 15.82 4.125Q16.078 3.844 16.102 3.434Q16.125 3.023 15.891 2.719Q15.727 2.531 15.375 2.168Q15.023 1.805 15 1.805Q14.977 1.805 14.531 2.273ZM8.812 6.047Q8.672 6.07 8.531 6.188Q8.391 6.305 8.332 6.445Q8.273 6.586 8.25 7.102Q8.227 7.5 8.215 7.57Q8.203 7.641 8.133 7.641Q8.062 7.641 7.711 7.711Q6.891 7.852 6.281 8.367Q5.672 8.883 5.414 9.633Q5.25 10.172 5.25 11.156Q5.25 11.461 5.262 11.531Q5.273 11.602 5.344 11.602Q5.414 11.602 6.258 11.508Q12 10.992 17.742 11.508Q18.586 11.602 18.656 11.602Q18.727 11.602 18.738 11.543Q18.75 11.484 18.75 11.18Q18.75 10.172 18.586 9.633Q18.328 8.883 17.719 8.367Q17.109 7.852 16.289 7.711Q15.938 7.641 15.867 7.641Q15.797 7.641 15.785 7.57Q15.773 7.5 15.75 7.102Q15.727 6.656 15.68 6.48Q15.633 6.305 15.469 6.188Q15.141 5.953 14.836 6.047Q14.461 6.141 14.32 6.445Q14.273 6.586 14.25 7.078L14.227 7.57L13.969 7.547Q13.688 7.523 13.242 7.523H12.773L12.75 7.055Q12.727 6.586 12.68 6.469Q12.516 6.023 12 6.023Q11.859 6.023 11.777 6.047Q11.695 6.07 11.602 6.141Q11.391 6.281 11.332 6.434Q11.273 6.586 11.25 7.031L11.227 7.523H10.758Q10.312 7.523 10.031 7.547L9.773 7.57L9.75 7.055Q9.727 6.609 9.668 6.445Q9.609 6.281 9.422 6.141Q9.141 5.953 8.812 6.047ZM10.289 12.797Q8.883 12.82 6.879 13.031Q4.875 13.242 4.359 13.383Q4.125 13.453 3.797 13.629Q3.469 13.805 3.281 13.969Q2.977 14.227 2.719 14.637Q2.461 15.047 2.367 15.469Q2.273 15.773 2.25 16.195Q2.227 16.477 2.238 16.535Q2.25 16.594 2.297 16.594Q2.438 16.547 2.766 16.535Q3.094 16.523 3.422 16.559Q3.75 16.594 3.984 16.664Q4.219 16.734 5.133 17.062Q5.414 17.156 5.543 17.18Q5.672 17.203 5.977 17.203Q6.352 17.203 6.574 17.145Q6.797 17.086 7.324 16.887Q7.852 16.688 8.156 16.629Q8.461 16.57 9 16.57Q9.539 16.57 9.844 16.629Q10.148 16.688 10.676 16.887Q11.203 17.086 11.426 17.145Q11.648 17.203 12 17.203Q12.352 17.203 12.574 17.145Q12.797 17.086 13.324 16.887Q13.852 16.688 14.156 16.629Q14.461 16.57 15 16.57Q15.539 16.57 15.844 16.629Q16.148 16.688 16.676 16.887Q17.203 17.086 17.426 17.145Q17.648 17.203 18.023 17.203Q18.328 17.203 18.457 17.18Q18.586 17.156 18.867 17.062Q19.781 16.734 20.016 16.664Q20.25 16.594 20.578 16.559Q20.906 16.523 21.234 16.535Q21.562 16.547 21.703 16.594Q21.75 16.594 21.762 16.547Q21.773 16.5 21.75 16.195Q21.656 14.906 20.883 14.133Q20.25 13.5 19.383 13.312Q18.703 13.195 17.191 13.043Q15.68 12.891 14.578 12.844Q13.805 12.82 12.258 12.797Q10.711 12.773 10.289 12.797ZM20.531 18.07Q20.297 18.117 19.734 18.34Q19.172 18.562 18.879 18.621Q18.586 18.68 18 18.691Q17.414 18.703 17.121 18.633Q16.828 18.562 16.242 18.328L15.703 18.094H14.297L13.758 18.328Q13.172 18.562 12.879 18.633Q12.586 18.703 12 18.703Q11.414 18.703 11.121 18.633Q10.828 18.562 10.242 18.328L9.703 18.094H8.297L7.758 18.328Q7.172 18.562 6.879 18.633Q6.586 18.703 6 18.691Q5.414 18.68 5.121 18.621Q4.828 18.562 4.242 18.328L3.703 18.094H3.117Q2.508 18.07 2.367 18.094L2.227 18.117L2.25 19.547Q2.25 20.602 2.273 20.824Q2.297 21.047 2.367 21.234Q2.648 21.984 3.375 22.336L3.656 22.453H20.344L20.625 22.336Q21.375 21.984 21.633 21.234Q21.703 21.023 21.727 20.801Q21.75 20.578 21.75 19.547L21.773 18.141L21.68 18.094Q21.562 18.07 21.152 18.059Q20.742 18.047 20.531 18.07Z"/></svg>