<svg xmlns="http://www.w3.org/2000/svg" viewBox="0 0 24 24" width="24" height="24" fill="currentColor"><path d="M13.031 1.547Q12.773 1.594 12.445 1.711Q12.117 1.828 11.883 1.98Q11.648 2.133 11.379 2.402Q11.109 2.672 10.98 2.871Q10.852 3.07 10.805 3.094Q10.758 3.117 10.266 3.188Q9.703 3.258 9.352 3.387Q9 3.516 8.648 3.773Q8.203 4.102 7.898 4.664Q7.594 5.227 7.5 5.836L7.477 5.977L14.344 6.047Q15.141 6.047 15.445 6.117Q15.656 6.141 15.914 6.281L15.984 6.305Q17.156 6.844 17.695 8.039L17.742 8.086Q17.859 8.367 17.906 8.602Q17.953 8.953 17.953 9.961L18.023 18.773L18.281 18.75Q18.68 18.703 19.113 18.516Q19.547 18.328 19.852 18.094Q20.062 17.93 20.297 17.648Q20.531 17.367 20.637 17.156Q20.742 16.945 20.883 16.594L21 16.242V11.789Q21 7.383 20.953 6.352Q20.93 5.531 20.883 5.273Q20.836 5.016 20.602 4.629Q20.367 4.242 20.086 3.984Q19.805 3.727 19.406 3.492Q19.078 3.328 18.832 3.27Q18.586 3.211 18.117 3.164Q17.648 3.117 17.637 3.082Q17.625 3.047 17.391 2.719Q16.828 1.969 15.891 1.641Q15.703 1.57 15.492 1.559Q15.281 1.547 14.484 1.547Q13.312 1.523 13.031 1.57ZM15.211 3.047Q15.703 3.117 16.055 3.469Q16.406 3.82 16.453 4.289L16.5 4.523H12L12.023 4.336Q12.047 4.102 12.199 3.82Q12.352 3.539 12.516 3.398Q12.703 3.211 12.879 3.141Q13.055 3.07 13.312 3.047Q13.641 3 14.309 3Q14.977 3 15.211 3.047ZM5.625 7.547 4.312 7.57 4.055 7.711Q3.773 7.852 3.539 8.098Q3.305 8.344 3.188 8.602Q3.07 8.859 3.035 9.258Q3 9.656 3 15Q3 20.344 3.047 20.742Q3.047 20.977 3.082 21.105Q3.117 21.234 3.188 21.422Q3.328 21.68 3.574 21.926Q3.82 22.172 4.125 22.336L4.406 22.477H15.07L15.398 22.312Q16.008 22.008 16.312 21.398L16.477 21.07V8.93L16.312 8.602Q16.008 7.992 15.422 7.711L15.141 7.57L11.039 7.547Q7.078 7.523 5.625 7.57ZM12.281 12.82Q12.422 12.891 12.504 12.961Q12.586 13.031 12.656 13.195Q12.727 13.359 12.727 13.5Q12.727 13.641 12.656 13.781Q12.586 13.922 12.281 14.32L11.273 15.633L10.031 17.133Q9.633 17.625 9.469 17.777Q9.305 17.93 9.188 17.953Q8.977 18.023 8.824 17.965Q8.672 17.906 8.391 17.672Q8.086 17.391 7.5 16.793Q6.914 16.195 6.844 16.078Q6.68 15.82 6.809 15.516Q6.938 15.211 7.219 15.082Q7.5 14.953 7.734 15.059Q7.969 15.164 8.461 15.633L8.953 16.125L11.297 13.195Q11.555 12.891 11.777 12.797Q12 12.703 12.281 12.82Z"/></svg>