<svg xmlns="http://www.w3.org/2000/svg" viewBox="0 0 24 24" width="24" height="24" fill="currentColor"><path d="M5.438 3.07Q4.969 3.164 4.605 3.352Q4.242 3.539 3.891 3.891Q3.656 4.125 3.562 4.266Q3.469 4.406 3.352 4.641L3.281 4.781Q3.141 5.062 3.094 5.32Q3.047 5.672 3.023 6.773Q3.023 7.547 3.023 10.406V13.594Q3.023 16.453 3.023 17.227Q3.047 18.328 3.094 18.68Q3.141 18.938 3.281 19.219L3.352 19.359Q3.469 19.594 3.562 19.734Q3.656 19.875 3.891 20.109Q4.125 20.344 4.266 20.438Q4.406 20.531 4.641 20.648L4.781 20.719Q5.062 20.859 5.32 20.906Q5.672 20.953 6.773 20.977Q7.547 20.977 10.406 20.977H13.594Q16.453 20.977 17.227 20.977Q18.328 20.953 18.68 20.906Q18.938 20.859 19.219 20.719L19.359 20.648Q19.594 20.531 19.734 20.438Q19.875 20.344 20.109 20.109Q20.344 19.875 20.438 19.734Q20.531 19.594 20.648 19.359L20.719 19.219Q20.859 18.938 20.906 18.68Q20.953 18.328 20.977 17.227Q20.977 16.453 20.977 13.594V10.406Q20.977 7.547 20.977 6.773Q20.953 5.672 20.906 5.32Q20.859 5.062 20.719 4.781L20.648 4.641Q20.531 4.406 20.438 4.266Q20.344 4.125 20.109 3.891Q19.875 3.656 19.734 3.562Q19.594 3.469 19.359 3.352L19.195 3.258Q18.938 3.141 18.68 3.094Q18.328 3.047 17.25 3.023Q16.477 3.023 13.641 3.023H12.094Q8.203 3 6.902 3.012Q5.602 3.023 5.438 3.07ZM18.516 4.594Q19.148 4.852 19.406 5.484L19.5 5.695V18.305L19.406 18.516Q19.148 19.148 18.516 19.406L18.305 19.5H5.695L5.484 19.406Q4.852 19.148 4.594 18.516L4.5 18.305V12.188Q4.477 6.07 4.523 5.812Q4.594 5.32 4.934 4.957Q5.273 4.594 5.742 4.523Q5.93 4.5 12.117 4.5H18.305ZM7.43 16.266Q7.359 16.289 7.254 16.301Q7.148 16.312 7.008 16.453Q6.773 16.664 6.762 16.969Q6.75 17.273 6.961 17.496Q7.172 17.719 7.512 17.719Q7.852 17.719 8.086 17.414Q8.18 17.32 8.203 17.25Q8.227 17.18 8.227 16.992Q8.227 16.805 8.203 16.746Q8.18 16.688 8.086 16.57Q7.969 16.43 7.863 16.371Q7.758 16.312 7.617 16.277Q7.477 16.242 7.43 16.266ZM10.43 16.266Q10.359 16.289 10.254 16.301Q10.148 16.312 10.008 16.453Q9.773 16.664 9.762 16.969Q9.75 17.273 9.961 17.496Q10.172 17.719 10.512 17.719Q10.852 17.719 11.086 17.414Q11.18 17.32 11.203 17.25Q11.227 17.18 11.227 16.992Q11.227 16.805 11.203 16.746Q11.18 16.688 11.086 16.57Q10.969 16.43 10.863 16.371Q10.758 16.312 10.617 16.277Q10.477 16.242 10.43 16.266ZM13.43 16.266Q13.359 16.289 13.254 16.301Q13.148 16.312 13.008 16.453Q12.773 16.664 12.762 16.969Q12.75 17.273 12.961 17.496Q13.172 17.719 13.5 17.719Q13.992 17.719 14.18 17.273Q14.32 16.945 14.145 16.629Q13.969 16.312 13.594 16.266Q13.453 16.242 13.43 16.266ZM15.75 16.992V17.766H17.25V16.242H15.75Z"/></svg>