<svg xmlns="http://www.w3.org/2000/svg" viewBox="0 0 24 24" width="24" height="24" fill="currentColor"><path d="M11.508 1.547Q10.828 1.641 10.172 2.133L10.102 2.18Q9.891 2.344 9.727 2.555Q9.492 2.883 8.906 3.867L6.539 7.945Q3.516 13.195 2.695 14.625Q1.875 16.055 1.793 16.301Q1.711 16.547 1.676 16.898Q1.641 17.25 1.664 17.508Q1.734 18.328 2.238 19.008Q2.742 19.688 3.469 19.992L3.562 20.039Q3.797 20.133 4.102 20.156Q4.523 20.203 5.883 20.203L12.023 20.227Q17.438 20.227 18.703 20.215Q19.969 20.203 20.109 20.156Q20.953 19.875 21.457 19.371Q21.961 18.867 22.184 18.234Q22.406 17.602 22.312 16.898V16.805Q22.289 16.523 22.172 16.266Q22.031 15.938 21.516 15.023L19.758 11.953L16.641 6.516L14.883 3.539Q14.438 2.766 14.25 2.531Q14.109 2.344 13.875 2.18L13.828 2.133Q13.617 1.969 13.289 1.805Q12.961 1.641 12.762 1.605Q12.562 1.57 12.141 1.547Q11.719 1.523 11.508 1.547ZM12.375 8.367Q12.516 8.461 12.609 8.602L12.727 8.742V12.984L12.586 13.172Q12.352 13.477 12 13.477Q11.648 13.477 11.414 13.172L11.273 12.984V10.875Q11.273 9.328 11.285 9.023Q11.297 8.719 11.367 8.625Q11.508 8.367 11.824 8.297Q12.141 8.227 12.375 8.367ZM12.422 15.141Q12.727 15.352 12.727 15.75Q12.727 16.148 12.387 16.371Q12.047 16.594 11.684 16.406Q11.32 16.219 11.297 15.797Q11.273 15.539 11.402 15.328Q11.531 15.117 11.789 15.047Q11.93 15 12.105 15.035Q12.281 15.07 12.422 15.141Z"/></svg>