<svg xmlns="http://www.w3.org/2000/svg" viewBox="0 0 24 24" width="24" height="24" fill="currentColor"><path d="M11.203 3.773Q9.984 3.891 8.965 4.172Q7.945 4.453 6.891 4.992Q5.016 5.953 3.574 7.57Q2.133 9.188 1.43 11.156Q1.195 11.789 1.289 12.352Q1.383 12.914 1.898 13.945Q2.648 15.445 3.82 16.699Q4.992 17.953 6.469 18.797Q8.109 19.734 10.066 20.074Q12.023 20.414 13.898 20.086Q15.492 19.805 16.957 19.09Q18.422 18.375 19.523 17.344Q20.438 16.477 21.023 15.691Q21.609 14.906 22.125 13.852Q22.43 13.219 22.594 12.82Q22.688 12.539 22.711 12.41Q22.734 12.281 22.734 12Q22.734 11.719 22.711 11.59Q22.688 11.461 22.594 11.18Q21.68 8.789 19.922 7.031Q19.477 6.586 19.113 6.293Q18.75 6 18.234 5.648Q17.133 4.922 15.984 4.488Q14.836 4.055 13.43 3.867Q13.125 3.82 12.305 3.785Q11.484 3.75 11.203 3.773ZM12.961 6.844Q13.336 6.914 13.875 7.113Q14.414 7.312 14.766 7.547Q15.023 7.711 15.34 7.969Q15.656 8.227 15.844 8.438Q16.664 9.328 17.062 10.617Q17.156 10.875 17.168 11.062Q17.18 11.25 17.18 12Q17.18 12.75 17.168 12.938Q17.156 13.125 17.062 13.383Q16.664 14.695 15.82 15.586Q15.445 16.008 14.883 16.371Q14.32 16.734 13.781 16.922Q13.242 17.109 12.949 17.156Q12.656 17.203 12 17.203Q11.461 17.203 11.262 17.191Q11.062 17.18 10.852 17.133Q8.953 16.617 7.898 15.258Q7.266 14.438 6.938 13.383Q6.844 13.125 6.832 12.938Q6.82 12.75 6.82 12Q6.82 11.25 6.832 11.062Q6.844 10.875 6.938 10.617Q7.336 9.352 8.156 8.438Q8.602 7.922 9.293 7.512Q9.984 7.102 10.688 6.914Q11.086 6.82 11.789 6.797Q12.492 6.773 12.961 6.844ZM11.25 9.094Q10.547 9.305 9.996 9.797Q9.445 10.289 9.211 10.945Q8.906 11.742 9.07 12.562Q9.234 13.406 9.809 14.027Q10.383 14.648 11.227 14.883Q11.555 14.977 12.012 14.977Q12.469 14.977 12.797 14.883Q13.219 14.766 13.512 14.578Q13.805 14.391 14.109 14.109Q14.32 13.875 14.426 13.734Q14.531 13.594 14.648 13.359Q14.836 12.961 14.906 12.691Q14.977 12.422 14.977 12Q14.977 11.578 14.918 11.309Q14.859 11.039 14.672 10.664Q14.438 10.172 13.992 9.785Q13.547 9.398 13.008 9.188Q12.797 9.094 12.656 9.082Q12.516 9.07 12.07 9.047Q11.461 9.047 11.25 9.094Z"/></svg>