<svg xmlns="http://www.w3.org/2000/svg" viewBox="0 0 24 24" width="24" height="24" fill="currentColor"><path d="M5.93 3.047Q5.414 3.07 5.18 3.129Q4.945 3.188 4.547 3.375Q4.266 3.539 3.926 3.867Q3.586 4.195 3.41 4.5Q3.234 4.805 3.141 5.109L3.023 5.414L3 9.211L2.742 9.328Q2.227 9.586 1.781 10.137Q1.336 10.688 1.172 11.273Q1.078 11.648 1.137 12.293Q1.195 12.938 1.523 15.211Q1.828 17.367 1.957 18.141Q2.086 18.914 2.203 19.148Q2.414 19.711 2.883 20.156Q3.352 20.602 3.938 20.812Q4.148 20.906 4.348 20.918Q4.547 20.93 5.508 20.953Q6.75 21 12 21Q17.25 21 18.492 20.953H18.516Q19.453 20.93 19.652 20.918Q19.852 20.906 20.062 20.836Q20.672 20.578 21.141 20.133Q21.609 19.688 21.844 19.078Q21.938 18.844 22.02 18.363Q22.102 17.883 22.406 15.75Q22.758 13.242 22.84 12.445Q22.922 11.648 22.828 11.273Q22.664 10.688 22.23 10.137Q21.797 9.586 21.258 9.328L21.023 9.211L20.977 8.859Q20.906 7.758 20.203 7.008Q19.805 6.562 19.289 6.305L19.266 6.281Q18.984 6.141 18.82 6.117Q18.586 6.047 18.094 6.047Q17.719 6.023 16.43 6L13.805 5.977L12.609 4.781Q11.391 3.586 11.145 3.41Q10.898 3.234 10.652 3.152Q10.406 3.07 10.008 3.035Q9.609 3 8.121 3Q6.633 3 5.93 3.047ZM10.195 4.594Q10.312 4.641 11.461 5.766Q12.445 6.727 12.715 6.961Q12.984 7.195 13.219 7.301Q13.453 7.406 13.887 7.441Q14.32 7.477 15.727 7.477Q17.344 7.477 17.859 7.512Q18.375 7.547 18.609 7.641Q18.938 7.805 19.16 8.098Q19.383 8.391 19.453 8.742L19.5 9H4.477V7.711Q4.477 6.445 4.512 6.012Q4.547 5.578 4.688 5.344Q4.898 4.875 5.391 4.641Q5.508 4.57 5.66 4.547Q5.812 4.523 6.305 4.523Q6.984 4.5 8.52 4.512Q10.055 4.523 10.195 4.594ZM19.359 10.523Q19.359 10.523 19.359 10.523Q20.062 10.523 20.215 10.547Q20.367 10.57 20.531 10.664Q21.023 10.898 21.258 11.367Q21.352 11.578 21.352 11.859Q21.375 12.211 21.258 13.102Q21.164 13.828 20.883 15.844Q20.602 17.695 20.531 18.082Q20.461 18.469 20.367 18.68Q20.273 18.891 20.027 19.102Q19.781 19.312 19.523 19.406L19.266 19.5H4.734L4.477 19.406Q4.102 19.289 3.832 18.961Q3.562 18.633 3.469 18.258Q3.445 18.023 3.164 16.078L2.766 13.266Q2.648 12.375 2.648 11.977Q2.648 11.719 2.66 11.613Q2.672 11.508 2.742 11.367Q2.859 11.156 3.059 10.957Q3.258 10.758 3.445 10.664Q3.633 10.57 3.797 10.559Q3.961 10.547 4.641 10.523Q5.602 10.5 12.047 10.5Q18.492 10.5 19.359 10.523Z"/></svg>