<svg xmlns="http://www.w3.org/2000/svg" viewBox="0 0 24 24" width="24" height="24" fill="currentColor"><path d="M5.953 3.844Q5.672 3.891 5.367 4.102Q5.062 4.312 4.852 4.594L4.781 4.688Q4.641 4.852 4.617 5.086Q4.57 5.438 4.547 6.539Q4.547 7.312 4.523 10.242V16.453Q4.547 17.977 4.57 18.516Q4.594 18.961 4.688 19.125Q4.922 19.617 5.32 19.887Q5.719 20.156 6.258 20.18L6.352 20.203Q6.609 20.227 6.867 20.133Q7.219 19.992 8.227 19.453Q8.93 19.078 11.555 17.625L12.352 17.203Q18.914 13.594 19.172 13.383Q19.758 12.82 19.758 11.988Q19.758 11.156 19.172 10.641Q18.961 10.453 18.094 9.984Q15.586 8.578 11.625 6.41Q7.664 4.242 7.242 4.031Q7.008 3.891 6.891 3.867Q6.773 3.844 6.516 3.82Q6.141 3.797 5.953 3.844ZM6.773 5.484Q8.086 6.141 14.391 9.633L17.414 11.32Q18.094 11.695 18.188 11.777Q18.281 11.859 18.281 11.988Q18.281 12.117 18.188 12.211Q18.047 12.375 10.734 16.383Q6.469 18.727 6.328 18.727Q6.258 18.727 6.117 18.609L6 18.516V5.484L6.117 5.391Q6.258 5.273 6.316 5.273Q6.375 5.273 6.773 5.484Z"/></svg>