<svg xmlns="http://www.w3.org/2000/svg" viewBox="0 0 24 24" width="24" height="24" fill="currentColor"><path d="M7.758 2.367Q7.195 2.484 6.656 2.777Q6.117 3.07 5.719 3.469Q5.227 3.984 4.898 4.664Q4.664 5.133 4.605 5.438Q4.547 5.742 4.547 6.375Q4.547 6.891 4.559 7.055Q4.57 7.219 4.641 7.453Q4.969 8.484 5.695 9.234Q6.422 9.984 7.43 10.312Q7.828 10.453 8.484 10.465Q9.141 10.477 9.586 10.383Q10.031 10.289 10.477 10.055Q10.922 9.82 11.273 9.492Q12.398 8.508 12.656 7.148Q12.727 6.727 12.715 6.176Q12.703 5.625 12.586 5.273Q12.422 4.711 12.164 4.277Q11.906 3.844 11.484 3.445Q10.289 2.273 8.555 2.273Q8.086 2.297 7.758 2.367ZM9 3.797Q9.281 3.82 9.469 3.891Q9.656 3.961 9.938 4.102Q10.289 4.312 10.605 4.688Q10.922 5.062 11.086 5.438Q11.156 5.648 11.203 6.047Q11.273 6.562 11.168 6.984Q11.062 7.406 10.805 7.828Q10.406 8.414 9.785 8.719Q9.164 9.023 8.508 8.977Q7.641 8.93 6.984 8.402Q6.328 7.875 6.094 7.031Q6 6.727 6.023 6.305Q6.047 5.883 6.141 5.578Q6.305 5.062 6.656 4.664Q7.008 4.266 7.5 4.008Q7.852 3.844 8.168 3.797Q8.484 3.75 9 3.797ZM16.898 5.344Q16.172 5.508 15.562 5.988Q14.953 6.469 14.602 7.148Q14.438 7.477 14.367 7.758Q14.297 8.039 14.285 8.484Q14.273 8.93 14.309 9.223Q14.344 9.516 14.484 9.844Q14.719 10.43 15.211 10.945Q15.703 11.461 16.312 11.719Q16.688 11.883 16.945 11.93Q17.203 11.977 17.742 11.953Q18.211 11.93 18.352 11.918Q18.492 11.906 18.75 11.789Q19.5 11.508 20.004 11.004Q20.508 10.5 20.789 9.75Q20.906 9.492 20.918 9.352Q20.93 9.211 20.953 8.742Q20.977 8.109 20.906 7.828Q20.648 6.891 19.934 6.199Q19.219 5.508 18.281 5.344Q18.023 5.273 17.578 5.285Q17.133 5.297 16.898 5.344ZM18.281 6.867Q18.656 7.008 18.938 7.301Q19.219 7.594 19.359 7.945Q19.453 8.203 19.465 8.543Q19.477 8.883 19.406 9.141Q19.172 9.938 18.398 10.312Q18.188 10.43 18.082 10.441Q17.977 10.453 17.625 10.453Q17.273 10.453 17.168 10.441Q17.062 10.43 16.852 10.336Q16.359 10.102 16.078 9.68Q15.727 9.141 15.773 8.508Q15.797 8.273 15.82 8.156Q15.844 8.039 15.938 7.852Q16.125 7.477 16.465 7.184Q16.805 6.891 17.18 6.797Q17.367 6.75 17.73 6.773Q18.094 6.797 18.281 6.867ZM8.086 12.047Q6.445 12.164 5.004 13.02Q3.562 13.875 2.625 15.305Q1.922 16.383 1.641 17.789Q1.547 18.258 1.535 18.844Q1.523 19.43 1.605 19.582Q1.688 19.734 1.91 19.887Q2.133 20.039 2.648 20.297Q3.75 20.859 4.875 21.199Q6 21.539 7.359 21.68Q7.828 21.727 8.953 21.703Q10.078 21.68 10.57 21.609Q11.695 21.422 12.562 21.141Q13.43 20.859 14.461 20.367L15.258 19.969L15.633 20.039Q16.172 20.156 16.57 20.191Q16.969 20.227 17.672 20.203Q18.633 20.203 19.348 20.098Q20.062 19.992 20.93 19.688Q21.352 19.547 21.785 19.336Q22.219 19.125 22.289 19.055Q22.43 18.891 22.465 18.48Q22.5 18.07 22.406 17.555Q22.195 16.336 21.434 15.363Q20.672 14.391 19.5 13.898Q18.797 13.594 17.93 13.535Q17.062 13.477 16.289 13.688Q15.938 13.805 15.445 14.051Q14.953 14.297 14.648 14.531L14.297 14.789L14.086 14.555Q12.961 13.266 11.438 12.598Q9.914 11.93 8.086 12.047ZM9 13.523Q9.633 13.57 10.125 13.711Q10.617 13.852 11.133 14.109Q13.219 15.141 13.969 17.391Q14.062 17.742 14.156 18.223Q14.25 18.703 14.227 18.762Q14.203 18.82 13.758 19.043Q13.312 19.266 12.891 19.43Q11.93 19.828 11.004 20.016Q10.078 20.203 9.023 20.227Q7.898 20.25 6.902 20.109Q5.906 19.969 4.898 19.641Q4.406 19.453 3.785 19.184Q3.164 18.914 3.094 18.82L3.07 18.797Q3.023 18.727 3.023 18.633Q3.023 18.539 3.117 18.07V18.023Q3.352 16.922 3.961 16.008Q4.57 15.094 5.531 14.461Q6.703 13.664 8.156 13.523L8.508 13.477ZM18.211 15.07Q19.242 15.234 19.992 16.008Q20.719 16.711 20.93 17.766Q21 18.047 20.953 18.094Q20.859 18.141 20.25 18.328Q19.641 18.516 19.312 18.586Q18.469 18.75 17.672 18.75Q16.875 18.75 15.867 18.586Q15.773 18.562 15.75 18.527Q15.727 18.492 15.703 18.305Q15.633 17.602 15.305 16.641L15.258 16.523Q15.141 16.172 15.164 16.09Q15.188 16.008 15.469 15.797L15.562 15.727Q16.781 14.812 18.211 15.07Z"/></svg>